<svg xmlns="http://www.w3.org/2000/svg" width="192" height="192" viewBox="0 0 192 192">
  <rect width="192" height="192" rx="40" fill="#0b5d3b"/>
  <circle cx="96" cy="96" r="60" fill="#f8f4e3"/>
  <path d="M61 59c23 20 47 53 72 74M133 59c-23 20-47 53-72 74" fill="none" stroke="#c93325" stroke-width="8" stroke-linecap="round"/>
  <path d="M72 69l-8 9M83 81l-8 9M95 94l-8 9M109 107l-8 9M121 119l-8 9M120 69l8 9M109 81l8 9M97 94l8 9M83 107l8 9M71 119l8 9" stroke="#c93325" stroke-width="5" stroke-linecap="round"/>
</svg>
