<svg xmlns="http://www.w3.org/2000/svg" width="512" height="512" viewBox="0 0 512 512">
  <rect width="512" height="512" rx="108" fill="#0b5d3b"/>
  <circle cx="256" cy="256" r="162" fill="#f8f4e3"/>
  <path d="M162 158c62 55 127 144 192 197M350 158c-62 55-127 144-192 197" fill="none" stroke="#c93325" stroke-width="22" stroke-linecap="round"/>
  <path d="M192 186l-22 24M222 218l-22 24M254 252l-22 24M290 286l-22 24M322 318l-22 24M320 186l22 24M290 218l22 24M258 252l22 24M222 286l22 24M190 318l22 24" stroke="#c93325" stroke-width="14" stroke-linecap="round"/>
</svg>
